# xmcd CD database file
#
# Track frame offsets:
#	150
#	42212
#	61012
#	97362
#	115120
#	128035
#
# Disc length: 2577 seconds
#
# Revision: 3
# Processed by: cddbd v1.5.2PL0 Copyright (c) Steve Scherf et al.
# Submitted via: CDex 1.51
#
DISCID=4b0a0f06
DTITLE=Paulo Moura - Gafierira Etc and Tal
DYEAR=1986
DGENRE=Blues
TTITLE0=Dialogo
TTITLE1=Ao Velho Pedro
TTITLE2=Rio Negro
TTITLE3=Alma Brasileira
TTITLE4=Nada Alem
TTITLE5=Fibra
EXTD=Submitted By WinSkol YEAR: 1986
EXTT0=
EXTT1=
EXTT2=
EXTT3=
EXTT4=
EXTT5=
PLAYORDER=
